<svg width="237" height="62" viewBox="0 0 237 62" fill="none" xmlns="http://www.w3.org/2000/svg">
<rect x="0.5" width="207" height="62" rx="6" fill="#E0E7FF"/>
<rect x="111" y="8" width="88.5" height="19" rx="9.5" fill="white"/>
<rect x="8.5" y="8" width="88.5" height="19" rx="9.5" fill="white"/>
<rect x="8.5" y="35" width="88.5" height="19" rx="9.5" fill="white"/>
<rect x="111" y="35" width="88.5" height="19" rx="9.5" fill="white"/>
<rect x="111" y="4" width="125.053" height="27" rx="13.5" fill="#6366F1"/>
<rect x="125" y="13.5" width="8.7218" height="8" rx="4" fill="white"/>
<rect x="139.723" y="13.5" width="8.7218" height="8" rx="4" fill="white"/>
<rect x="154.443" y="13.5" width="8.7218" height="8" rx="4" fill="white"/>
<rect x="169.166" y="13.5" width="8.7218" height="8" rx="4" fill="white"/>
<rect x="183.887" y="13.5" width="8.7218" height="8" rx="4" fill="white"/>
<rect x="198.609" y="13.5" width="8.7218" height="8" rx="4" fill="white"/>
<rect x="213.33" y="13.5" width="8.7218" height="8" rx="4" fill="white"/>
</svg>
