<svg width="86" height="92" viewBox="0 0 86 92" fill="none" xmlns="http://www.w3.org/2000/svg">
<path d="M8 8C5.87827 8 3.84344 8.84285 2.34315 10.3431C0.842854 11.8434 0 13.8783 0 16V84C0 86.1217 0.842854 88.1566 2.34315 89.6569C3.84344 91.1571 5.87827 92 8 92H50C52.1217 92 54.1566 91.1571 55.6569 89.6569C57.1571 88.1566 58 86.1217 58 84V16C58 13.8783 57.1571 11.8434 55.6569 10.3431C54.1566 8.84285 52.1217 8 50 8H8Z" fill="#334155"/>
<path d="M54 76C54 76.5304 53.7893 77.0391 53.4142 77.4142C53.0391 77.7893 52.5304 78 52 78H6C5.46957 78 4.96086 77.7893 4.58579 77.4142C4.21071 77.0391 4 76.5304 4 76V20C4 19.4696 4.21071 18.9609 4.58579 18.5858C4.96086 18.2107 5.46957 18 6 18H52C52.5304 18 53.0391 18.2107 53.4142 18.5858C53.7893 18.9609 54 19.4696 54 20V76Z" fill="#E0E7FF"/>
<path d="M78 0H38C35.8783 0 33.8434 0.842855 32.3431 2.34315C30.8429 3.84344 30 5.87827 30 8V48C30 48.3714 30.1034 48.7355 30.2987 49.0515C30.494 49.3674 30.7734 49.6227 31.1056 49.7889C31.4378 49.955 31.8097 50.0253 32.1796 49.9919C32.5495 49.9586 32.9029 49.8229 33.2 49.6L46 40H78C80.1217 40 82.1566 39.1571 83.6569 37.6569C85.1571 36.1566 86 34.1217 86 32V8C86 5.87827 85.1571 3.84344 83.6569 2.34315C82.1566 0.842855 80.1217 0 78 0Z" fill="#6366F1"/>
<path d="M56 28H44C43.4696 28 42.9609 27.7893 42.5858 27.4142C42.2107 27.0391 42 26.5304 42 26C42 25.4696 42.2107 24.9609 42.5858 24.5858C42.9609 24.2107 43.4696 24 44 24H56C56.5304 24 57.0391 24.2107 57.4142 24.5858C57.7893 24.9609 58 25.4696 58 26C58 26.5304 57.7893 27.0391 57.4142 27.4142C57.0391 27.7893 56.5304 28 56 28ZM72 16H44C43.4696 16 42.9609 15.7893 42.5858 15.4142C42.2107 15.0391 42 14.5304 42 14C42 13.4696 42.2107 12.9609 42.5858 12.5858C42.9609 12.2107 43.4696 12 44 12H72C72.5304 12 73.0391 12.2107 73.4142 12.5858C73.7893 12.9609 74 13.4696 74 14C74 14.5304 73.7893 15.0391 73.4142 15.4142C73.0391 15.7893 72.5304 16 72 16Z" fill="white"/>
</svg>
