<svg width="104" height="105" viewBox="0 0 104 105" fill="none" xmlns="http://www.w3.org/2000/svg">
<path d="M41.166 29.1667V42.1667H28.166V29.1667H41.166ZM47.666 22.6667H21.666V48.6667H47.666V22.6667ZM41.166 63.8334V76.8334H28.166V63.8334H41.166ZM47.666 57.3334H21.666V83.3334H47.666V57.3334ZM75.8327 29.1667V42.1667H62.8327V29.1667H75.8327ZM82.3327 22.6667H56.3327V48.6667H82.3327V22.6667ZM56.3327 57.3334H62.8327V63.8334H56.3327V57.3334ZM62.8327 63.8334H69.3327V70.3334H62.8327V63.8334ZM69.3327 57.3334H75.8327V63.8334H69.3327V57.3334ZM56.3327 70.3334H62.8327V76.8334H56.3327V70.3334ZM62.8327 76.8334H69.3327V83.3334H62.8327V76.8334ZM69.3327 70.3334H75.8327V76.8334H69.3327V70.3334ZM75.8327 63.8334H82.3327V70.3334H75.8327V63.8334ZM75.8327 76.8334H82.3327V83.3334H75.8327V76.8334ZM95.3327 31.3334H86.666V18.3334H73.666V9.66675H95.3327V31.3334ZM95.3327 96.3334V74.6667H86.666V87.6667H73.666V96.3334H95.3327ZM8.66602 96.3334H30.3327V87.6667H17.3327V74.6667H8.66602V96.3334ZM8.66602 9.66675V31.3334H17.3327V18.3334H30.3327V9.66675H8.66602Z" fill="#94A3B8"/>
<rect x="67" y="1" width="37" height="37" rx="18.5" fill="white"/>
<path d="M85.4069 0.787914C95.5451 0.787914 103.814 9.05664 103.814 19.1948C103.814 29.4049 95.5451 37.6017 85.4069 37.6017C75.1968 37.6017 67 29.4049 67 19.1948C67 9.05664 75.1968 0.787914 85.4069 0.787914ZM85.4069 34.1504C93.6037 34.1504 100.363 27.4635 100.363 19.1948C100.363 10.998 93.6037 4.23921 85.4069 4.23921C77.1382 4.23921 70.4513 10.998 70.4513 19.1948C70.4513 27.4635 77.1382 34.1504 85.4069 34.1504ZM85.4069 22.6461C84.4003 22.6461 83.6813 21.9271 83.6813 20.9205V11.717C83.6813 10.7823 84.4003 9.99137 85.4069 9.99137C86.3416 9.99137 87.1326 10.7823 87.1326 11.717V20.9205C87.1326 21.9271 86.3416 22.6461 85.4069 22.6461ZM85.4069 25.0908C86.6292 25.0908 87.6359 26.0974 87.6359 27.3197C87.6359 28.5421 86.6292 29.5487 85.4069 29.5487C84.1127 29.5487 83.106 28.5421 83.106 27.3197C83.106 26.0974 84.1127 25.0908 85.4069 25.0908Z" fill="#EF4444"/>
</svg>
