<svg fill="none" height="105" viewBox="0 0 104 105" width="104" xmlns="http://www.w3.org/2000/svg"><path d="m41.166 29.1667v13h-13v-13zm6.5-6.5h-26v26h26zm-6.5 41.1667v13h-13v-13zm6.5-6.5h-26v26h26zm28.1667-28.1667v13h-13v-13zm6.5-6.5h-26v26h26zm-26 34.6667h6.5v6.5h-6.5zm6.5 6.5h6.5v6.5h-6.5zm6.5-6.5h6.5v6.5h-6.5zm-13 13h6.5v6.5h-6.5zm6.5 6.5h6.5v6.5h-6.5zm6.5-6.5h6.5v6.5h-6.5zm6.5-6.5h6.5v6.5h-6.5zm0 13h6.5v6.5h-6.5zm19.5-45.5h-8.6667v-13h-13v-8.66671h21.6667zm0 65v-21.6667h-8.6667v13h-13v8.6667zm-86.66668 0h21.66668v-8.6667h-13v-13h-8.66668zm0-86.66671v21.66671h8.66668v-13h13v-8.66671z" fill="#94a3b8"/><rect fill="#fff" height="37" rx="18.5" width="37" x="67" y="1"/><path d="m84.4722 25.2346c-.7909.7909-2.0133.7909-2.8042 0l-4.6017-4.6017c-.7909-.791-.7909-2.0133 0-2.8042s2.0132-.7909 2.8042 0l3.2355 3.1637 7.7655-7.7654c.7909-.791 2.0132-.791 2.8041 0 .791.7909.791 2.0132 0 2.8041zm19.3418-6.0398c0 10.2101-8.2689 18.4069-18.4071 18.4069-10.2101 0-18.4069-8.1968-18.4069-18.4069 0-10.13816 8.1968-18.406886 18.4069-18.406886 10.1382 0 18.4071 8.268726 18.4071 18.406886zm-18.4071-14.95559c-8.2687 0-14.9556 6.75879-14.9556 14.95559 0 8.2687 6.6869 14.9556 14.9556 14.9556 8.1968 0 14.9561-6.6869 14.9561-14.9556 0-8.1968-6.7593-14.95559-14.9561-14.95559z" fill="#16a34a"/></svg>